#!OML:ASF F:\VICON\USERDATA\INSTALL\rory3\rory3.ASF
:FULLY-SPECIFIED
:DEGREES
126
root -1.4654 14.8317 -4.14645 21.4829 -4.95569 -9.77279
lowerback -6.58059 3.64924 8.01922
upperback -6.38954 4.5759 2.47817
thorax -2.57324 2.05376 -1.68727
lowerneck -15.0289 -2.56106 -4.93649
upperneck 10.51 -2.89912 3.51135
head 5.75582 -1.34376 1.6422
rclavicle -1.08586e-014 -1.0138e-014
rhumerus -35.8665 44.9265 -105.325
rradius 79.5613
rwrist 24.6361
rhand -15.9349 -33.6793
rfingers 7.12502
rthumb 10.2629 296.591
lclavicle -1.08586e-014 -1.0138e-014
lhumerus -69.0449 -19.4429 99.1314
lradius 96.826
lwrist 10.0901
lhand -32.9165 -38.4988
lfingers 7.12502
lthumb -6.13358 -8.60764
rfemur -9.16696 8.86003 34.79
rtibia 51.0671
rfoot -23.9027 -17.2097
rtoes -39.0524
lfemur -83.6108 6.8453 -17.8072
ltibia 62.1198
lfoot -5.97165 -3.0798
ltoes -15.9077
127
root -1.50542 14.896 -3.62555 20.4595 -4.48487 -9.18795
lowerback -6.68059 3.70498 7.52217
upperback -6.22597 4.64551 2.08136
thorax -2.33645 2.1109 -1.80871
lowerneck -14.6917 -3.04222 -5.21474
upperneck 11.0533 -3.60762 4.11882
head 5.91957 -1.65696 1.815
rclavicle -4.72983e-014 -8.54774e-015
rhumerus -35.9289 45.0663 -106.429
rradius 80.615
rwrist 24.8913
rhand -15.672 -33.5917
rfingers 7.12502
rthumb 10.5166 296.691
lclavicle -4.72983e-014 -8.54774e-015
lhumerus -70.7043 -20.6595 98.6846
lradius 98.2128
lwrist 9.85527
lhand -32.3393 -38.0322
lfingers 7.12502
lthumb -5.57636 -8.12555
rfemur -5.9531 8.01794 34.5021
rtibia 49.7053
rfoot -18.2657 -15.2422
rtoes -40.2666
lfemur -82.1897 6.56895 -19.2473
ltibia 59.1229
lfoot -4.12701 -5.44017
ltoes -14.8956
128
root -1.54183 14.9727 -3.09945 19.5362 -4.06493 -8.62599
lowerback -6.92581 3.75642 6.99884
upperback -6.02574 4.69792 1.7218
thorax -1.98882 2.16384 -1.8657
lowerneck -14.3522 -3.5256 -5.52282
upperneck 11.5162 -4.31651 4.70829
head 6.06433 -1.97223 1.98661
rclavicle -7.0786e-015 7.8023e-015
rhumerus -35.7524 45.3562 -107.299
rradius 81.6585
rwrist 24.5665
rhand -14.92 -33.3328
rfingers 7.12502
rthumb 11.2419 296.988
lclavicle -7.0786e-015 7.8023e-015
lhumerus -71.9218 -21.9503 98.2106
lradius 99.4029
lwrist 9.67174
lhand -31.9764 -37.1739
lfingers 7.12502
lthumb -5.2259 -7.25837
rfemur -3.6224 7.10221 34.1608
rtibia 49.2748
rfoot -12.802 -11.8831
rtoes -38.4118
lfemur -80.7367 6.46228 -20.8586
ltibia 56.9506
lfoot -2.02655 -6.21896
ltoes -11.692
129
root -1.57218 15.031 -2.57941 18.7578 -3.59896 -8.54136
lowerback -7.05816 3.84272 6.96828
upperback -5.83122 4.7891 1.50093
thorax -1.68692 2.22007 -2.05355
lowerneck -14.2037 -3.90944 -5.69293
upperneck 11.8695 -4.86839 5.01288
head 6.19316 -2.22449 2.05767
rclavicle 4.24933e-014 1.49089e-014
rhumerus -35.1984 45.639 -107.806
rradius 82.6802
rwrist 23.7912
rhand -14.0511 -32.9037
rfingers 7.12502
rthumb 12.0798 297.465
lclavicle 4.24933e-014 1.49089e-014
lhumerus -72.6323 -23.2788 97.6809
lradius 100.49
lwrist 9.7113
lhand -31.2883 -36.6682
lfingers 7.12502
lthumb -4.56154 -6.73736
rfemur -2.34946 6.26445 34.1779
rtibia 49.6542
rfoot -7.03326 -8.41487
rtoes -34.497
lfemur -79.5664 6.54244 -22.0096
ltibia 55.6148
lfoot 0.274503 -5.03873
ltoes -4.75927
130
root -1.60213 15.058 -2.08171 18.0695 -2.95765 -9.15447
lowerback -7.03455 3.98884 7.65045
upperback -5.62358 4.93888 1.42353
thorax -1.41482 2.2871 -2.48913
lowerneck -14.1878 -4.22762 -5.75527
upperneck 12.144 -5.35456 5.37032
head 6.31703 -2.43313 2.13233
rclavicle 2.18912e-014 -4.27387e-015
rhumerus -34.2226 45.7231 -107.88
rradius 83.6488
rwrist 23.9107
rhand -12.5502 -32.1535
rfingers 7.12502
rthumb 13.5268 298.306
lclavicle 2.18912e-014 -4.27387e-015
lhumerus -72.7793 -24.9195 97.1512
lradius 101.379
lwrist 10.1098
lhand -30.5172 -36.4976
lfingers 7.12502
lthumb -3.81693 -6.55207
rfemur -1.94733 5.32274 34.9444
rtibia 51.0099
rfoot -2.80876 -6.96857
rtoes -35.3995
lfemur -78.2178 6.75661 -22.3218
ltibia 55.3479
lfoot 0.827297 -4.31297
ltoes -7.05575
131
root -1.63488 15.0604 -1.59376 18.024 -2.18719 -10.1066
lowerback -7.7431 4.18177 8.5632
upperback -5.51775 5.06195 1.4104
thorax -0.835928 2.34738 -2.93669
lowerneck -14.2921 -4.64502 -5.82977
upperneck 12.4459 -5.99418 5.87219
head 6.48686 -2.70118 2.23616
rclavicle -5.04043e-014 -5.1684e-015
rhumerus -32.7117 45.6575 -107.555
rradius 84.3804
rwrist 25.0371
rhand -10.521 -31.148
rfingers 7.12502
rthumb 15.4818 299.452
lclavicle -5.04043e-014 -5.1684e-015
lhumerus -72.5167 -26.6436 96.5442
lradius 102.206
lwrist 10.2206
lhand -30.15 -36.3741
lfingers 7.12502
lthumb -3.46231 -6.42247
rfemur -2.45054 4.20555 36.0595
rtibia 53.1887
rfoot 1.34602 -4.92214
rtoes -33.7953
lfemur -77.7958 7.01618 -22.2225
ltibia 55.8166
lfoot 1.91659 -3.39079
ltoes -3.9081
132
root -1.65646 15.0413 -1.09349 17.5203 -1.67748 -11.0825
lowerback -6.9224 4.29438 9.52592
upperback -6.0822 5.29455 1.36178
thorax -1.78507 2.38227 -3.57755
lowerneck -14.2396 -5.0422 -5.72493
upperneck 13.5342 -6.65612 6.10927
head 6.87299 -2.98703 2.22182
rclavicle -1.64122e-014 -2.22639e-014
rhumerus -32.7217 45.2295 -108.559
rradius 84.8611
rwrist 26.1877
rhand -8.92669 -30.6377
rfingers 7.12502
rthumb 17.017 300.088
lclavicle -1.64122e-014 -2.22639e-014
lhumerus -72.6718 -28.3698 96.4541
lradius 102.493
lwrist 9.91085
lhand -30.0933 -36.5511
lfingers 7.12502
lthumb -3.40758 -6.59862
rfemur -2.86877 2.85008 37.011
rtibia 56.1688
rfoot 1.2398 -5.40447
rtoes -39.9193
lfemur -76.798 7.34228 -21.8498
ltibia 57.0669
lfoot 1.61708 -3.56011
ltoes -1.60699
133
root -1.68479 15.0123 -0.603475 17.1344 -0.816056 -11.9387
lowerback -6.9826 4.31382 10.392
upperback -6.15961 5.277 1.33396
thorax -1.77487 2.34373 -4.07944
lowerneck -14.1755 -5.41214 -5.69973
upperneck 13.8934 -7.26202 6.51705
head 7.03124 -3.23912 2.28221
rclavicle 4.75841e-015 -1.03368e-014
rhumerus -31.5323 45.2832 -108.684
rradius 85.2078
rwrist 27.1061
rhand -7.74819 -31.174
rfingers 7.12502
rthumb 18.1511 299.653
lclavicle 4.75841e-015 -1.03368e-014
lhumerus -71.6042 -30.2132 95.8927
lradius 102.867
lwrist 9.43988
lhand -29.6941 -36.345
lfingers 7.12502
lthumb -3.02207 -6.3867
rfemur -4.28075 1.37241 38.0572
rtibia 59.9442
rfoot 2.24349 -5.33459
rtoes -34.7922
lfemur -75.7985 7.41694 -21.4826
ltibia 58.7745
lfoot -0.131808 -3.4543
ltoes 6.4497
134
root -1.7226 14.9854 -0.11788 16.7049 0.117793 -12.607
lowerback -7.78069 4.28893 10.8679
upperback -5.6725 5.07309 1.42854
thorax -0.824007 2.29129 -4.18037
lowerneck -14.1442 -5.80486 -5.88657
upperneck 13.4921 -7.82698 7.03604
head 6.96278 -3.48119 2.41826
rclavicle -9.25591e-015 -9.14409e-015
rhumerus -29.2383 45.6539 -107.637
rradius 85.6482
rwrist 27.9925
rhand -6.58659 -31.7939
rfingers 7.12502
rthumb 19.2684 299.141
lclavicle -9.25591e-015 -9.14409e-015
lhumerus -68.8917 -32.0449 94.7798
lradius 103.242
lwrist 8.33488
lhand -29.338 -36.0643
lfingers 7.12502
lthumb -2.67811 -6.10135
rfemur -6.36401 0.00284467 39.0394
rtibia 64.1725
rfoot 3.2214 -7.00421
rtoes -30.8138
lfemur -74.5598 7.35557 -21.0324
ltibia 60.7915
lfoot -3.35897 -2.83605
ltoes 12.2494
135
root -1.74881 14.9409 0.345103 16.6462 0.508977 -13.2336
lowerback -9.08918 4.42023 11.1224
upperback -5.00611 4.9912 1.62335
thorax 0.589817 2.33679 -4.00297
lowerneck -14.1335 -6.10258 -6.02074
upperneck 12.7581 -8.20367 7.30545
head 6.76823 -3.65669 2.48728
rclavicle -2.08724e-015 -2.06736e-014
rhumerus -26.2794 46.1371 -105.771
rradius 85.9942
rwrist 28.237
rhand -5.6897 -31.661
rfingers 7.12502
rthumb 20.1306 299.362
lclavicle -2.08724e-015 -2.06736e-014
lhumerus -65.1705 -33.7361 93.5289
lradius 103.543
lwrist 7.57489
lhand -28.7907 -35.4662
lfingers 7.12502
lthumb -2.1496 -5.49726
rfemur -9.52061 -0.711957 39.7601
rtibia 68.9171
rfoot 2.94981 -9.31274
rtoes -34.2742
lfemur -73.6809 7.2934 -20.393
ltibia 62.9992
lfoot -6.99349 -1.96262
ltoes 9.72746
136
root -1.76855 14.9384 0.796337 16.649 1.21982 -13.6037
lowerback -9.48492 4.32095 11.5543
upperback -4.80721 4.75329 1.50348
thorax 1.01959 2.23829 -4.35959
lowerneck -14.1676 -6.26946 -5.81498
upperneck 12.2563 -8.4755 7.52745
head 6.63401 -3.76633 2.49686
rclavicle -3.65764e-014 -1.98785e-015
rhumerus -23.7354 46.2884 -104.663
rradius 86.1092
rwrist 28.0049
rhand -4.94863 -31.3884
rfingers 7.12502
rthumb 20.8428 299.711
lclavicle -3.65764e-014 -1.98785e-015
lhumerus -61.4267 -35.6395 91.9754
lradius 103.847
lwrist 7.10462
lhand -28.73 -34.8777
lfingers 7.12502
lthumb -2.09091 -4.90823
rfemur -13.1489 -1.70039 40.2536
rtibia 73.6142
rfoot 2.42939 -10.5858
rtoes -31.0894
lfemur -73.4528 6.46748 -19.3292
ltibia 65.2393
lfoot -9.18255 -0.344209
ltoes 9.42496
137
root -1.78882 14.9328 1.19899 16.6117 2.12041 -13.5301
lowerback -8.96351 4.00719 11.5762
upperback -4.80133 4.41663 1.31382
thorax 0.701527 2.05408 -4.64819
lowerneck -14.0806 -6.43736 -5.64233
upperneck 11.4637 -8.72363 7.7486
head 6.38688 -3.87611 2.5196
rclavicle 2.05245e-014 -2.38542e-015
rhumerus -21.1453 46.4046 -103.407
rradius 86.0729
rwrist 27.8891
rhand -4.59125 -31.4364
rfingers 7.12502
rthumb 21.1861 299.701
lclavicle 2.05245e-014 -2.38542e-015
lhumerus -56.8786 -37.6962 90.2501
lradius 103.914
lwrist 7.02091
lhand -29.0295 -34.7161
lfingers 7.12502
lthumb -2.38017 -4.74964
rfemur -17.4834 -2.70781 40.4369
rtibia 78.54
rfoot 1.71811 -11.9304
rtoes -30.4652
lfemur -73.3579 5.08357 -18.4496
ltibia 67.5927
lfoot -10.8237 0.65025
ltoes 11.384
138
root -1.82083 14.9005 1.58241 16.2824 2.93983 -12.7879
lowerback -8.0867 3.54854 10.6563
upperback -4.66969 3.99358 1.11376
thorax 0.255622 1.83986 -4.44813
lowerneck -13.7233 -6.56406 -5.63505
upperneck 10.3384 -8.87496 8.03175
head 5.99454 -3.95698 2.60965
rclavicle 2.36057e-014 -1.51076e-014
rhumerus -18.5773 46.481 -101.902
rradius 86.0022
rwrist 27.8124
rhand -4.95258 -31.6173
rfingers 7.12502
rthumb 20.839 299.482
lclavicle 2.36057e-014 -1.51076e-014
lhumerus -51.5867 -39.7333 88.4006
lradius 103.949
lwrist 7.08162
lhand -28.8835 -34.469
lfingers 7.12502
lthumb -2.23917 -4.50104
rfemur -22.0786 -3.54668 39.9953
rtibia 83.5153
rfoot 1.08908 -13.1379
rtoes -27.1392
lfemur -72.8693 3.4644 -18.2194
ltibia 69.8057
lfoot -12.4539 1.36262
ltoes 12.0817
139
root -1.86913 14.8293 1.93608 15.2424 3.92028 -11.0829
lowerback -6.23423 2.74489 8.53916
upperback -4.32328 3.25317 0.85649
thorax -0.591828 1.48 -3.69564
lowerneck -13.4062 -6.636 -5.87334
upperneck 9.17895 -8.91049 8.41867
head 5.60988 -3.98523 2.78352
rclavicle -2.7482e-014 -7.95139e-015
rhumerus -16.1253 46.6431 -100.293
rradius 86.1103
rwrist 27.245
rhand -5.11439 -31.5309
rfingers 7.12502
rthumb 20.6835 299.551
lclavicle -2.7482e-014 -7.95139e-015
lhumerus -45.5827 -41.5623 86.2161
lradius 104.09
lwrist 6.75431
lhand -28.4967 -33.9491
lfingers 7.12502
lthumb -1.86563 -3.97752
rfemur -26.6264 -4.87171 38.4939
rtibia 88.6643
rfoot -0.881158 -14.3175
rtoes -23.5489
lfemur -71.2945 1.42278 -19.0868
ltibia 71.4744
lfoot -14.0344 2.2541
ltoes 11.2047
140
root -1.91628 14.8164 2.32869 13.4479 3.72026 -8.57094
lowerback -3.99862 2.19583 5.35848
upperback -3.50077 2.79334 0.36632
thorax -1.13468 1.3054 -2.53419
lowerneck -13.5672 -6.67652 -6.17546
upperneck 8.41704 -8.91062 8.92361
head 5.43786 -3.97091 2.99173
rclavicle -1.14301e-014 -1.82882e-014
rhumerus -13.4266 46.9357 -98.3545
rradius 86.4366
rwrist 26.2691
rhand -5.31741 -31.9514
rfingers 7.12502
rthumb 20.4884 299.11
lclavicle -1.14301e-014 -1.82882e-014
lhumerus -38.5523 -43.2099 83.2165
lradius 104.129
lwrist 5.93841
lhand -28.3298 -33.9162
lfingers 7.12502
lthumb -1.70441 -3.94322
rfemur -30.0282 -5.40388 35.5326
rtibia 93.1144
rfoot -3.6866 -15.7772
rtoes -23.4063
lfemur -67.7187 0.513954 -21.2556
ltibia 72.2873
lfoot -16.029 3.29003
ltoes 10.0537
